<svg xmlns="http://www.w3.org/2000/svg" viewBox="0 0 256 256" role="img" aria-label="Stargazer — bald Latino man with moustache, stars for eyes on a starry night">
  <style>
    :root{
      --line:#111;

      /* Skin tone (default: medium golden-tan) */
      --skin:#D49C78;
      --blush:#C8846B;

      /* Quick presets you can swap in: */
      /* --skin:#E9B491; --blush:#D38E77;   */ /* light-warm */
      /* --skin:#BF7D55; --blush:#A5654F;   */ /* medium-deep */
      /* --skin:#9A5E3F; --blush:#804B3A;   */ /* deep-warm */

      --stache:#201915;

      --sky:#0b0c10;
      --star:#ffe08a;
      --star2:#c3e6ff;

      --jacket:#2a3340;
      --jacket-trim:#1b2028;
    }
    .s{stroke:var(--line);stroke-width:5.2;stroke-linecap:round;stroke-linejoin:round}
    .sf{stroke:var(--line);stroke-width:4;stroke-linecap:round;stroke-linejoin:round}
    @keyframes twinkle{0%{opacity:.2}50%{opacity:1}100%{opacity:.2}}
    .t1{animation:twinkle 4.5s ease-in-out infinite}
    .t2{animation:twinkle 6s ease-in-out infinite}
    .t3{animation:twinkle 7.5s ease-in-out infinite}
  </style>

  <!-- Starry background -->
  <rect x="0" y="0" width="256" height="256" fill="var(--sky)"/>
  <g fill="var(--star)">
    <circle class="t1" cx="24" cy="22" r="1.6"/><circle class="t2" cx="54" cy="40" r="1.2"/>
    <circle class="t3" cx="96" cy="18" r="1.8"/><circle class="t2" cx="132" cy="36" r="1.4"/>
    <circle class="t1" cx="176" cy="20" r="1.6"/><circle class="t3" cx="222" cy="30" r="1.2"/>
    <circle class="t2" cx="210" cy="68" r="1.4"/><circle class="t1" cx="38" cy="80" r="1.4"/>
    <circle class="t3" cx="76" cy="60" r="1.3"/><circle class="t2" cx="144" cy="72" r="1.2"/>
    <circle class="t1" cx="200" cy="94" r="1.6"/>
  </g>
  <g fill="var(--star2)" opacity=".9">
    <circle class="t2" cx="20" cy="120" r="1.2"/><circle class="t1" cx="228" cy="116" r="1.4"/>
    <circle class="t3" cx="188" cy="52" r="1.3"/><circle class="t2" cx="120" cy="52" r="1.1"/>
  </g>

  <!-- Star shape def -->
  <defs>
    <g id="star5" fill="var(--star)" stroke="var(--line)" stroke-width="2">
      <path d="M0,-6 L1.8,-1.9 6,-1.9 2.4,0.6 3.8,5 0,2.4 -3.8,5 -2.4,0.6 -6,-1.9 -1.8,-1.9 Z"/>
    </g>
  </defs>
  <use href="#star5" x="40" y="32" transform="scale(1.1)" opacity=".9"/>
  <use href="#star5" x="206" y="58" transform="scale(.9)" opacity=".85"/>

  <!-- Face -->
  <circle class="s" cx="128" cy="144" r="60" fill="var(--skin)"/>
  <circle class="s" cx="62"  cy="144" r="12" fill="var(--skin)"/>
  <circle class="s" cx="194" cy="144" r="12" fill="var(--skin)"/>

  <!-- Bald highlight -->
  <path d="M84 96q22-14 44-14t44 14q-24 8-44 8t-44-8Z" fill="#ffffff18"/>

  <!-- Brows / nose -->
  <path class="sf" d="M96 130q12-6 24-5" fill="none"/>
  <path class="sf" d="M136 125q12-1 24 5" fill="none"/>
  <path class="sf" d="M128 150c-2 6-2 8 0 10" fill="none"/>

  <!-- Star eyes -->
  <use href="#star5" x="108" y="146"/><use href="#star5" x="148" y="146"/>

  <!-- Lowered smile -->
  <path class="sf" d="M104 180q24 12 48 0" fill="none"/>

  <!-- Cheeks -->
  <circle cx="100" cy="166" r="8.5" fill="var(--blush)" opacity=".75"/>
  <circle cx="156" cy="166" r="8.5" fill="var(--blush)" opacity=".75"/>

  <!-- Lowered moustache -->
  <g fill="var(--stache)" stroke="var(--line)" stroke-width="4" stroke-linecap="round" stroke-linejoin="round">
    <path d="M116 172q-14 10-28 0q16-4 28-12q2 6 0 12Z"/>
    <path d="M140 172q14 10 28 0q-16-4-28-12q-2 6 0 12Z"/>
  </g>

  <!-- Collar -->
  <path class="s" fill="var(--jacket-trim)" d="M72 206a56 24 0 0 0 112 0v14a88 36 0 0 1-112 0v-14z"/>
  <path class="s" fill="var(--jacket)" d="M72 206a56 24 0 0 0 112 0H72z"/>
</svg>
